<svg width="147" height="45" viewBox="0 0 147 45" fill="none" xmlns="http://www.w3.org/2000/svg">
<path d="M40.2543 0C53.4466 0 60.985 6.63014 60.985 18.0822V42.8699H45.9835V32.6986C44.2497 39.6301 38.6712 44 31.1327 44C23.2174 44 17.9404 39.1781 17.9404 31.9452C17.9404 23.8082 24.6497 19.0616 36.3343 19.0616H45.9835V18.0822C45.9835 13.4863 43.9481 10.9247 39.8773 10.9247C35.8066 10.9247 34.0727 13.1849 34.0727 17.1781H19.1466C19.1466 6.55479 27.2127 0 40.2543 0ZM38.7466 26.4452C34.9773 26.4452 33.0174 27.726 33.0174 30.137C33.0174 32.5479 34.902 33.8288 38.0681 33.8288C42.4404 33.8288 46.0589 31.1164 46.0589 27.8014V26.4452H38.822H38.7466Z" fill="#8C86AA"/>
<path d="M29.5508 1.28027V11.3008H12.3631V17.6296H27.9677V26.8214H12.3631V33.0748H30.0785V43.0953H0V1.28027H29.5508Z" fill="white"/>
<path d="M116.094 0.377197L115.943 0.75391L105.013 31.9457C103.505 36.1649 101.545 39.1786 98.9064 41.0621C96.2679 43.021 92.951 43.9251 88.8048 43.9251C86.9202 43.9251 84.8095 43.6991 82.3972 43.3224H82.171V33.9046H82.4725C84.0556 34.206 85.3372 34.2813 86.4679 34.2813C88.9556 34.2813 90.6895 33.7539 92.0464 32.4731L81.1156 0.75391L80.9648 0.377197H93.5541V0.603225L98.6048 22.4525L103.731 0.603225V0.377197H116.169H116.094Z" fill="#8C86AA"/>
<path d="M126.722 34.1306C131.396 34.1306 134.788 31.8703 135.24 27.7265H126.42V20.795H147V43.1717H135.542V34.1306C133.129 40.384 128.305 44.0758 122.123 44.0758C112.776 44.0758 105.689 35.4868 105.689 22.3019C105.689 9.11692 114.434 0.377197 126.571 0.377197C136.748 0.377197 144.965 6.63062 146.699 16.9525H134.486C133.431 12.5827 130.566 10.5484 126.646 10.5484C121.068 10.5484 118.203 14.3909 118.203 22.2265C118.203 30.0621 121.143 34.1306 126.797 34.1306H126.722Z" fill="white"/>
<path d="M87.5221 15.069H75.7621C75.7621 11.8293 73.1236 9.87035 68.9021 9.87035C65.4344 9.87035 62.7205 11.2265 62.7205 13.4114C62.7205 15.8977 65.1329 16.2745 70.7113 17.1032L71.9929 17.2539C78.9282 18.2334 88.8036 19.6649 88.8036 30.0621C88.8036 38.9525 81.4913 44.0005 69.3544 44.0005C56.4636 44.0005 49.7544 38.3498 49.7544 28.932H61.5144C61.5144 32.3977 64.4544 34.5073 69.3544 34.5073C73.5005 34.5073 76.5159 33.0005 76.5159 30.5895C76.5159 27.9525 74.0282 27.5758 68.5252 26.8977L66.7913 26.6717C60.1575 25.843 50.4329 24.5621 50.4329 14.4662C50.3575 5.3498 58.1975 0.377197 69.1282 0.377197C80.6621 0.377197 87.5221 5.8772 87.5221 15.069Z" fill="white"/>
</svg>
